<?xml version="1.0" standalone="no"?><svg xmlns="http://www.w3.org/2000/svg" viewBox="0 0 1440 320"><path fill="#000b70" fill-opacity="1" d="M0,256L30,229.3C60,203,120,149,180,144C240,139,300,181,360,218.7C420,256,480,288,540,261.3C600,235,660,149,720,122.7C780,96,840,128,900,149.3C960,171,1020,181,1080,192C1140,203,1200,213,1260,202.7C1320,192,1380,160,1410,144L1440,128L1440,320L1410,320C1380,320,1320,320,1260,320C1200,320,1140,320,1080,320C1020,320,960,320,900,320C840,320,780,320,720,320C660,320,600,320,540,320C480,320,420,320,360,320C300,320,240,320,180,320C120,320,60,320,30,320L0,320Z"></path></svg>